<svg xmlns="http://www.w3.org/2000/svg" xml:space="preserve" style="enable-background:new 0 0 512 512" viewBox="0 0 512 512"><path d="M444.335 401.119c-1.044-27.347-10.849-53.96-27.893-75.414a110.903 110.903 0 0 1-17.908-32.538 110.585 110.585 0 0 1-6.205-36.598v-21.794c0-63.077-43.061-116.279-101.327-131.773V35.009C291.002 15.704 275.298 0 255.993 0c-19.304 0-35.009 15.704-35.009 35.009v67.953c-23.009 6.073-44.112 18.131-61.395 35.407-25.752 25.75-39.933 59.988-39.933 96.405v21.794c0 25.009-8.564 49.563-24.113 69.135a128.762 128.762 0 0 0-20.788 37.763 128.419 128.419 0 0 0-7.106 37.657c-10.355 4.649-17.589 15.05-17.589 27.118 0 16.385 13.329 29.714 29.714 29.714h113.878c4.36 30.51 30.651 54.044 62.348 54.044s57.988-23.534 62.348-54.044h113.877c16.385 0 29.714-13.329 29.714-29.714-.002-12.071-7.242-22.476-17.604-27.122zM238.888 35.009c0-9.432 7.674-17.106 17.106-17.106 9.431 0 17.106 7.673 17.106 17.106v64.5a137.201 137.201 0 0 0-17.106-1.071c-5.765 0-11.475.358-17.106 1.059V35.009zM91.657 369.369a110.854 110.854 0 0 1 17.903-32.53c18.055-22.727 27.998-51.235 27.998-80.271v-21.794c0-31.636 12.32-61.377 34.688-83.745 22.381-22.37 52.123-34.689 83.748-34.689 65.305 0 118.433 53.129 118.433 118.434v21.794c0 14.528 2.425 28.83 7.207 42.502a128.774 128.774 0 0 0 20.791 37.769c13.999 17.622 22.312 39.286 23.835 61.688H85.722c.665-9.946 2.636-19.725 5.935-29.158zm164.341 124.728c-21.8 0-40.033-15.551-44.196-36.141h88.392c-4.162 20.591-22.396 36.141-44.196 36.141zm176.224-54.044H79.772c-6.512 0-11.811-5.298-11.811-11.811s5.298-11.811 11.811-11.811h352.45c6.513 0 11.811 5.298 11.811 11.811.001 6.513-5.298 11.811-11.811 11.811z"/></svg>