<svg xmlns="http://www.w3.org/2000/svg" xml:space="preserve" style="enable-background:new 0 0 425.139 425.139" viewBox="0 0 425.139 425.139"><path d="M159.171 184.204a9 9 0 0 1-9 9H71.397c-4.971 0-9-4.029-9-9s4.029-9 9-9h78.774a9 9 0 0 1 9 9zm-27.717 28.774H90.116c-4.971 0-9 4.029-9 9s4.029 9 9 9h41.338a9 9 0 0 0 0-18zM422.25 330.891a9 9 0 0 1 .496 12.718c-15.011 16.229-39.605 14.724-70.741 12.82-37.931-2.321-85.136-5.207-135.15 21.88a9.006 9.006 0 0 1-8.572 0c-20.516-11.112-40.563-17.18-59.688-20.312v41.263a9 9 0 0 1-13.367 7.87l-24.442-13.563-24.445 13.563a8.993 8.993 0 0 1-8.932-.114 9 9 0 0 1-4.434-7.756v-42.822c-31.061 1.902-55.598 3.372-70.582-12.829a9.001 9.001 0 0 1 13.214-12.223c9.217 9.965 30.052 8.689 56.428 7.076 37.1-2.27 87.551-5.353 140.534 21.762 52.983-27.115 103.436-24.032 140.535-21.762 26.377 1.613 47.212 2.888 56.428-7.076 3.376-3.65 9.07-3.869 12.718-.495zm-291.655 24.938c-13.865-1.105-27.136-.938-39.62-.387v28.532l15.444-8.569a9.008 9.008 0 0 1 8.733 0l15.442 8.569v-28.145zm135.37-209.401a9 9 0 0 0 9 9h78.774c4.971 0 9-4.029 9-9s-4.029-9-9-9h-78.774a9 9 0 0 0-9 9zM425.139 25.88v273.557a8.996 8.996 0 0 1-2.393 6.111c-15.011 16.227-39.605 14.723-70.741 12.819-37.922-2.318-85.123-5.203-135.125 21.866a8.945 8.945 0 0 1-4.303 1.101c-.627 0-2.549-.161-4.42-1.156C158 313.523 111.032 316.05 73.135 318.366c-31.138 1.904-55.731 3.407-70.741-12.819A8.99 8.99 0 0 1 0 299.436V25.878a8.997 8.997 0 0 1 4.395-7.732 9.007 9.007 0 0 1 8.892-.182c50.013 27.088 97.22 24.2 135.148 21.881 26.927-1.646 48.961-2.994 64.135 7.168 15.174-10.163 37.207-8.814 64.134-7.167 37.934 2.323 85.137 5.207 135.149-21.88a9.002 9.002 0 0 1 13.286 7.914zM203.568 62.735c-10.142-7.609-29.736-6.412-54.035-4.924C114.542 59.949 67.669 62.816 18 40.382v255.096c10.143 7.607 29.738 6.409 54.035 4.924 11.057-.677 23.304-1.426 36.447-1.426 28.449 0 61.112 3.509 95.086 18.854V62.735zm203.571-22.351c-49.669 22.434-96.542 19.567-131.534 17.429-24.3-1.485-43.894-2.685-54.036 4.924V317.83c49.67-22.433 96.544-19.568 131.535-17.428 24.297 1.485 43.893 2.684 54.036-4.924V40.384zm-53.399 134.82h-78.774c-4.971 0-9 4.029-9 9s4.029 9 9 9h78.774a9 9 0 0 0 0-18zm-203.569-37.776H71.397c-4.971 0-9 4.029-9 9s4.029 9 9 9h78.774c4.971 0 9-4.029 9-9s-4.029-9-9-9zm184.85 75.55h-41.336c-4.971 0-9 4.029-9 9s4.029 9 9 9h41.336c4.971 0 9-4.029 9-9s-4.029-9-9-9z"/></svg>